<?xml version="1.0" encoding="UTF-8"?><svg id="Layer_1" xmlns="http://www.w3.org/2000/svg" viewBox="0 0 1139.82 199.84"><defs><style>.cls-1{font-family:HelveticaNeue-CondensedBlack, 'Helvetica Neue';font-size:29.24px;font-weight:800;}.cls-2,.cls-3{stroke-width:0px;}.cls-3{fill:#fd151b;}</style></defs><path class="cls-3" d="m91.46,70.38c-7.03,5.32-14.72,9.4-22.7,12.16.95,3.61,1.71,7.31,2.09,11.02,1.14,8.83.76,17.57-.85,26.12-1.8,9.12-5.03,17.86-9.69,25.83-7.12,12.25-17.48,22.79-30.3,30.2l-13.68-23.74c19.38-11.21,30.11-32.77,27.35-54.99-.38-3.32-1.14-6.55-2.09-9.78h-.09c-14.25,0-28.59-3.7-41.51-11.21l13.68-23.74c19.38,11.21,43.41,9.69,61.36-3.8,2.75-1.99,5.22-4.37,7.5-6.84,4.65,7.98,10.64,15.2,17.57,21.18-2.75,2.75-5.6,5.32-8.64,7.6Z"/><path class="cls-2" d="m202.97,123.66l-13.68,23.74c-23.08-13.3-51.76-8.17-68.95,10.73,7.12,12.25,11.3,26.5,11.3,41.7h-27.45c0-26.69-18.9-49.01-43.98-54.42,4.65-7.98,7.88-16.72,9.69-25.83,12.25,3.23,23.46,9.31,32.77,17.29,8.93-9.02,19.76-15.67,31.34-19.76-3.32-12.25-3.7-24.98-1.33-37.04-12.25-3.23-23.46-9.31-32.77-17.29-7.03-5.98-13.01-13.2-17.57-21.18-7.03-12.16-11.21-26.4-11.21-41.6h27.35c0,26.59,18.81,48.91,43.88,54.33,7.03-12.25,17.29-22.89,30.39-30.39l13.68,23.74c-22.98,13.3-32.96,40.65-25.17,64.97,14.25-.09,28.59,3.51,41.7,11.02Z"/><path class="cls-2" d="m262.9,75.03v74.08h-24.69v-74.08h-20.23v-20.9h65.25v20.9s-20.33,0-20.33,0Z"/><path class="cls-2" d="m288.93,101.63c0-7.03,1.33-13.68,3.89-19.66,2.56-6.08,6.17-11.4,10.83-15.96s10.16-8.07,16.53-10.64c6.46-2.56,13.49-3.89,21.28-3.89s14.72,1.33,21.18,3.89c6.46,2.56,12.06,6.08,16.72,10.64s8.26,9.78,10.92,15.96c2.56,6.08,3.89,12.63,3.89,19.66s-1.33,13.68-3.89,19.66c-2.56,6.08-6.27,11.4-10.92,15.96s-10.26,8.07-16.72,10.64c-6.46,2.56-13.58,3.89-21.18,3.89s-14.82-1.33-21.28-3.89c-6.46-2.56-11.97-6.08-16.53-10.64-4.65-4.56-8.26-9.78-10.83-15.96-2.56-6.08-3.89-12.63-3.89-19.66Zm25.83,0c0,3.8.66,7.31,2.09,10.45,1.42,3.23,3.32,5.98,5.79,8.26,2.47,2.37,5.32,4.18,8.45,5.51,3.23,1.33,6.65,1.99,10.26,1.99s7.03-.66,10.26-1.99c3.23-1.33,6.08-3.13,8.55-5.51s4.46-5.13,5.89-8.26c1.42-3.23,2.09-6.65,2.09-10.45s-.66-7.31-2.09-10.45c-1.42-3.23-3.42-5.98-5.89-8.26-2.47-2.37-5.32-4.18-8.55-5.51s-6.65-1.99-10.26-1.99-7.03.66-10.26,1.99-6.08,3.13-8.45,5.51c-2.47,2.37-4.37,5.13-5.79,8.26-1.33,3.13-2.09,6.65-2.09,10.45Z"/><path class="cls-2" d="m444.79,75.03v74.08h-24.69v-74.08h-20.23v-20.9h65.25v20.9s-20.33,0-20.33,0Z"/><path class="cls-2" d="m529.89,132.59h-35.33l-5.7,16.53h-26.31l36.19-94.98h26.97l36.19,94.98h-26.31l-5.7-16.53Zm-6.65-18.71l-11.11-31.63-11.11,31.63h22.23Z"/><path class="cls-2" d="m597.32,54.14v74.08h29.63v20.9h-54.33V54.14s24.69,0,24.69,0Z"/><path class="cls-2" d="m711.3,59.27v17c-8.26-6.93-16.91-10.35-25.74-10.35-9.78,0-17.95,3.51-24.69,10.54-6.74,6.93-10.07,15.48-10.07,25.55s3.42,18.33,10.07,25.26c6.74,6.84,15.01,10.26,24.69,10.26,5.03,0,9.31-.85,12.82-2.47,1.99-.85,3.99-1.99,6.08-3.32,2.09-1.42,4.37-3.04,6.65-5.03v17.29c-8.17,4.65-16.81,6.93-25.83,6.93-13.58,0-25.17-4.75-34.76-14.15-9.59-9.59-14.34-21.09-14.34-34.57,0-12.06,3.99-22.89,11.97-32.39,10.07-11.68,22.79-17.48,38.47-17.48,8.45-.09,16.72,2.28,24.69,6.93Z"/><path class="cls-2" d="m724.02,101.15c0-13.39,4.94-24.88,14.72-34.48,9.78-9.5,21.47-14.34,35.14-14.34s25.17,4.84,34.86,14.53c9.78,9.69,14.53,21.37,14.53,34.86s-4.84,25.26-14.63,34.76c-9.78,9.59-21.66,14.34-35.52,14.34-12.25,0-23.27-4.27-33.05-12.73-10.64-9.4-16.05-21.75-16.05-36.95Zm14.44.19c0,10.45,3.51,19.19,10.54,25.93,7.03,6.74,15.1,10.16,24.31,10.16,9.97,0,18.33-3.42,25.26-10.35,6.84-6.93,10.26-15.48,10.26-25.45s-3.42-18.62-10.16-25.45c-6.74-6.93-15.1-10.35-24.98-10.35s-18.24,3.42-25.07,10.35c-6.74,6.84-10.16,15.2-10.16,25.17Z"/><path class="cls-2" d="m892.33,126.04h-40.65l-10.54,23.08h-15.48l47.01-100.96,45.3,100.96h-15.67l-9.97-23.08Zm-5.79-13.49l-14.06-32.29-14.72,32.29h28.78Z"/><path class="cls-2" d="m995.66,59.27v17c-8.26-6.93-16.91-10.35-25.74-10.35-9.78,0-17.95,3.51-24.69,10.54-6.74,6.93-10.07,15.48-10.07,25.55s3.42,18.33,10.07,25.26c6.74,6.84,15.01,10.26,24.69,10.26,5.03,0,9.31-.85,12.82-2.47,1.99-.85,3.99-1.99,6.08-3.32,2.09-1.42,4.37-3.04,6.65-5.03v17.29c-8.17,4.65-16.81,6.93-25.83,6.93-13.58,0-25.17-4.75-34.76-14.15-9.59-9.59-14.34-21.09-14.34-34.57,0-12.06,3.99-22.89,11.97-32.39,9.78-11.59,22.6-17.38,38.18-17.38,8.74-.19,17,2.18,24.98,6.84Z"/><path class="cls-2" d="m1030.71,91.27h41.03v-37.14h14.34v94.98h-14.34v-44.36h-41.03v44.36h-14.34V54.14h14.34v37.14Z"/><text class="cls-1" transform="translate(1101.09 58.4) scale(1.09 1)"><tspan x="0" y="0">TM</tspan></text></svg>